# xmcd
#
# Track frame offsets:
#	150
#	8851
#	21599
#	30604
#	39427
#	51689
#	61755
#	71979
#	85228
#	94695
#	104924
#	113507
#	125084
#	137512
#	147799
#	157811
#	168396
#	180347
#	190912
#	203557
#	213702
#	223329
#	235214
#	246560
#	259043
#	269339
#
# Disc length: 3719 seconds
#
# Revision: 0
# Processed by: cddbd v1.5.2PL0 Copyright (c) Steve Scherf et al.
# Submitted via: EasyCDDAExtractor 15.3.0.1
#
DISCID=880e851a
DTITLE=Wills Bob - Faded Love Cd 10
DYEAR=1900
DGENRE=
TTITLE0=Big Beaver (1967)
TTITLE1=San Antonio Rose (1967)
TTITLE2=Eight'r From Decatur (1967)
TTITLE3=Comanche  Hit And Run (1967)
TTITLE4=I Needed You (1967)
TTITLE5=If You'll Come Back To Me (1967)
TTITLE6=Somewhere South Of San Antone (1967)
TTITLE7=Faded Love (1967)
TTITLE8=Let's Be Sure We Know (1967)
TTITLE9=Memphis (1967)
TTITLE10=Sugarfoot Rag (1967)
TTITLE11=I Wish I Felt This Way At Home (1967)
TTITLE12=Looking Over My Shoulder (1967)
TTITLE13=Cimarron (1968)
TTITLE14=Riders In The Sky (1968)
TTITLE15=Here's That Man Again (1968)
TTITLE16=Canadian Sunset (1968)
TTITLE17=Born To Love You (1968)
TTITLE18=Lily Dale (1968)
TTITLE19=Fiddle Bird (1968)
TTITLE20=Carolina In The Morning (1968 Uniss.)
TTITLE21=Rain Drops In The River
TTITLE22=Way Down In Texas (1968)
TTITLE23=Don't Send Him Back To Me (1968)
TTITLE24=Betcha My Heart I Love You (1968)
TTITLE25=Big Taters In The Sandy Land (1968)
EXTD=
EXTT0=
EXTT1=
EXTT2=
EXTT3=
EXTT4=
EXTT5=
EXTT6=
EXTT7=
EXTT8=
EXTT9=
EXTT10=
EXTT11=
EXTT12=
EXTT13=
EXTT14=
EXTT15=
EXTT16=
EXTT17=
EXTT18=
EXTT19=
EXTT20=
EXTT21=
EXTT22=
EXTT23=
EXTT24=
EXTT25=
PLAYORDER=
